P2
16 32
255
189 170 176 130 127 127 127 127 127 127 127 127 135 133 129 127 
134 127 127 127 127 127 127 127 127 144 144 127 127 127 127 127 
127 127 127 127 127 127 130 151 179 217 159 141 153 130 129 170 
127 127 127 127 127 134 159 141 180 214 190 192 132 127 127 127 
127 127 127 127 143 150 140 127 127 190 133 127 127 133 132 127 
127 127 127 133 137 127 127 130 172 245 169 127 127 131 127 127 
127 127 134 137 145 137 132 194 214 205 231 193 127 127 135 127 
147 155 175 169 205 211 161 189 225 214 152 127 127 127 127 127 
127 142 127 127 172 226 237 223 130 127 127 127 127 127 127 127 
154 127 127 127 135 190 247 147 127 127 127 127 127 127 127 127 
127 142 141 127 183 127 127 127 127 127 127 127 127 127 127 127 
127 157 151 155 151 127 127 127 127 127 127 127 127 127 127 127 
128 146 165 180 144 127 127 127 127 127 127 156 128 127 127 127 
220 255 223 135 146 127 127 127 127 127 134 199 185 127 127 127 
237 251 241 156 127 127 127 127 127 127 157 207 181 127 127 157 
231 238 232 214 144 127 127 127 127 127 127 164 201 196 198 201 
196 173 145 127 127 127 127 127 127 127 127 127 187 127 141 147 
210 224 132 127 161 146 127 127 127 127 127 127 156 127 130 164 
217 255 239 169 134 127 127 127 127 127 152 180 212 144 133 127 
131 127 127 127 127 127 159 127 127 127 141 158 190 161 163 148 
127 127 127 127 127 127 127 133 127 127 136 139 155 144 148 137 
133 133 127 127 144 140 139 166 148 154 166 170 168 152 145 137 
158 147 153 165 162 157 164 172 142 131 127 127 127 127 127 127 
171 165 165 176 185 180 171 168 147 127 127 127 127 127 127 127 
143 144 134 127 129 130 127 131 127 127 127 127 127 127 127 127 
127 131 127 134 127 133 229 198 175 127 127 127 127 127 127 127 
127 127 127 127 127 170 204 190 186 127 127 127 127 127 127 127 
163 130 127 127 127 164 168 181 255 127 127 127 127 127 127 127 
127 127 127 147 137 141 197 150 228 127 127 127 127 127 127 127 
127 129 127 127 127 127 160 150 127 127 127 127 127 127 127 127 
127 128 127 127 127 127 127 127 127 127 127 127 127 127 127 127 
127 127 127 127 127 127 127 127 127 127 127 127 127 127 127 127 
