P2
64 32
255
127 127 127 131 138 144 151 158 198 223 241 241 243 251 254 248 249 248 248 242 240 252 251 232 239 215 189 127 127 127 175 210 212 207 237 243 241 182 127 174 198 184 134 127 208 242 246 251 248 225 153 131 197 224 176 140 127 128 200 215 127 127 127 127 
127 127 127 128 133 137 143 150 174 200 226 237 242 248 252 250 249 249 251 251 247 242 243 245 241 230 216 171 155 132 149 175 218 232 228 214 197 145 127 176 228 233 196 155 209 237 246 246 252 205 127 127 164 169 127 127 127 127 166 167 127 127 127 127 
127 127 127 127 127 129 134 140 149 173 206 229 240 243 247 250 247 255 252 249 252 245 233 230 242 253 255 226 196 132 134 170 210 240 215 186 154 127 127 140 204 243 249 212 226 243 237 207 220 182 127 127 127 127 127 127 127 127 127 127 127 127 127 127 
127 127 127 127 127 127 128 134 140 155 184 215 234 240 243 248 246 255 250 241 253 251 219 190 216 232 242 236 217 139 133 166 186 218 220 196 155 127 127 127 175 227 255 241 241 251 216 146 138 127 127 127 127 127 127 127 127 127 127 127 127 127 127 127 
127 127 127 127 127 127 127 133 140 145 163 193 221 237 244 248 248 253 251 247 245 230 200 178 188 189 190 205 210 150 154 170 144 149 173 141 127 127 127 128 204 233 252 249 246 250 189 127 127 127 127 127 127 127 127 127 127 127 127 127 127 127 127 127 
127 127 127 127 127 127 127 133 138 139 148 170 200 227 242 247 252 243 253 253 220 193 198 210 207 206 198 196 183 146 196 218 204 193 224 182 127 127 127 146 206 216 224 243 241 230 152 127 127 127 127 127 127 127 127 127 127 127 127 127 127 127 127 127 
127 127 127 127 127 127 127 131 134 139 142 151 175 208 231 238 250 241 250 226 174 181 228 242 245 246 238 221 179 142 196 191 127 135 200 223 187 127 127 127 137 141 148 185 180 156 127 127 127 127 127 127 127 127 127 127 127 127 127 127 127 127 127 127 
127 127 127 127 127 127 127 128 131 141 144 141 157 191 218 227 245 245 244 186 133 194 255 251 255 247 243 242 205 152 151 127 127 127 139 182 174 127 127 127 127 127 127 127 127 127 127 127 127 127 127 127 127 127 127 127 127 127 127 127 127 127 127 127 
127 127 127 127 127 127 127 127 127 127 133 140 142 153 188 223 239 239 243 227 207 228 255 254 249 255 227 192 127 127 127 127 127 127 127 127 146 127 127 127 127 127 127 127 127 127 127 127 127 127 127 127 127 127 127 127 127 127 127 127 127 127 127 127 
127 127 127 127 127 127 127 127 128 127 131 136 138 146 175 205 225 237 247 239 246 255 252 190 140 127 127 127 127 127 127 127 127 127 127 127 127 127 127 127 127 127 127 127 127 127 127 127 127 127 127 127 127 127 127 127 127 127 127 127 127 127 127 127 
127 127 127 127 127 127 127 127 130 127 128 131 132 137 157 178 229 221 239 255 241 191 131 127 127 127 127 127 127 127 127 127 127 127 127 127 127 127 127 127 127 133 127 127 127 127 127 127 127 127 127 127 127 127 127 127 127 127 127 127 127 127 127 127 
127 127 127 127 127 127 127 127 130 127 127 127 129 132 142 155 198 206 240 254 190 127 127 127 127 127 127 127 127 127 127 127 127 127 127 127 127 127 127 143 127 134 127 127 127 127 127 127 127 127 127 127 127 127 127 127 127 127 127 127 127 127 127 127 
127 127 127 127 127 127 127 127 128 127 127 127 128 130 135 141 152 210 230 173 127 127 127 127 127 127 127 127 127 127 127 127 127 127 127 127 127 127 127 137 129 127 127 127 127 127 127 127 127 127 127 127 127 127 127 127 127 127 127 127 127 127 127 127 
127 127 127 127 127 127 127 127 127 127 127 127 127 130 133 136 143 186 163 127 127 127 127 127 127 127 127 127 127 127 127 127 127 127 127 127 127 127 137 127 127 127 127 127 127 127 127 127 127 127 127 127 127 127 127 127 127 127 127 127 127 161 130 127 
127 127 127 127 127 127 127 127 127 127 127 127 127 129 132 134 145 139 127 127 127 127 127 127 127 127 127 127 127 127 127 127 127 127 127 127 127 127 127 127 127 127 127 127 127 127 127 127 127 127 127 127 127 127 127 127 127 127 127 127 137 153 127 127 
127 127 127 127 127 127 127 127 127 127 128 127 127 127 131 132 142 127 127 127 127 127 127 127 127 127 127 127 127 127 127 127 127 127 127 127 127 127 127 127 128 127 127 127 127 127 127 127 127 127 127 127 127 127 127 127 127 127 127 131 127 127 127 127 
127 127 127 127 127 127 127 127 127 127 128 131 129 127 129 133 138 127 127 127 127 127 127 127 127 127 127 127 127 127 127 127 127 127 127 127 127 127 127 138 145 127 127 127 127 127 127 127 127 127 127 127 127 127 127 127 127 127 127 153 135 127 127 127 
127 127 127 127 127 127 127 127 127 127 127 130 132 131 130 129 127 127 127 127 127 127 127 127 127 127 127 127 127 127 127 127 127 127 127 127 140 127 127 151 177 127 127 127 127 127 127 127 127 127 127 127 127 127 127 127 127 127 127 127 127 127 127 127 
128 129 128 127 127 127 127 127 127 127 127 127 130 132 130 127 127 127 127 127 127 127 127 127 127 127 127 127 127 127 127 127 127 127 127 127 127 127 127 196 130 127 127 127 127 127 127 127 127 127 127 127 127 127 127 127 127 127 127 127 127 127 127 127 
130 131 132 130 127 127 127 127 127 127 127 127 127 129 130 128 127 127 127 127 127 127 127 127 127 127 127 127 127 127 127 127 127 127 127 127 127 127 127 183 127 127 127 127 127 127 127 127 127 127 127 127 127 127 127 127 127 127 127 127 127 127 127 127 
131 133 133 132 129 127 127 127 127 127 127 127 127 127 130 129 127 127 127 127 127 127 127 127 127 127 127 127 127 127 127 127 127 127 127 127 148 153 205 168 127 127 127 127 127 127 127 127 127 127 127 127 127 127 127 127 127 127 127 127 127 127 127 127 
130 131 131 129 127 127 127 127 127 128 128 127 127 127 127 127 127 127 127 127 127 127 127 127 127 127 127 127 127 127 127 127 127 127 127 127 127 132 199 185 127 127 127 127 127 127 127 127 127 127 127 127 127 127 127 127 127 127 127 127 127 127 127 127 
127 127 127 127 127 127 127 127 127 127 127 127 127 127 127 127 127 127 127 127 127 127 127 127 127 127 127 127 127 127 127 127 127 127 127 139 180 146 203 141 127 127 127 127 127 127 127 132 163 135 127 127 127 127 127 127 127 127 127 127 127 127 127 127 
127 127 127 127 127 127 127 127 127 127 127 127 127 127 127 127 127 127 127 127 127 127 127 127 127 127 127 127 127 127 127 127 127 127 127 135 153 132 215 163 127 156 163 167 135 139 131 127 127 127 127 127 127 127 127 127 127 127 127 127 127 127 127 127 
127 127 127 127 127 127 127 127 127 130 127 127 127 127 127 127 127 127 127 127 127 127 127 127 127 127 127 127 127 127 127 127 127 127 127 127 127 149 171 166 160 147 137 137 133 127 127 127 127 127 127 127 127 127 127 127 127 127 127 127 127 127 127 127 
127 127 127 127 127 127 127 127 127 127 127 128 130 127 127 127 127 127 127 127 127 127 127 127 127 127 127 127 127 167 127 127 127 127 127 127 127 127 127 132 150 134 127 127 127 127 127 127 127 127 127 127 127 127 127 127 127 127 127 127 127 127 127 127 
127 127 127 127 127 127 127 127 127 127 127 137 129 127 127 127 127 127 127 127 127 127 127 127 127 127 127 127 127 170 202 127 127 127 127 127 130 127 127 137 127 127 127 127 127 127 127 127 127 127 127 127 127 127 127 127 127 127 127 127 127 127 127 127 
127 127 127 127 127 127 127 127 127 127 127 130 127 127 127 127 127 127 127 127 127 127 127 127 127 127 127 127 127 132 224 127 127 127 127 127 127 127 127 139 127 127 127 127 127 127 127 127 127 127 127 127 127 127 127 127 127 127 127 127 127 127 127 127 
127 127 127 127 127 127 127 127 127 127 127 127 127 127 127 127 127 127 127 127 127 127 127 127 127 127 127 127 127 127 203 132 127 127 127 127 127 127 127 128 127 127 127 127 127 127 127 127 127 127 127 127 127 127 127 127 127 127 127 127 127 127 127 127 
127 127 127 127 127 127 127 127 127 127 127 127 127 127 127 127 127 127 127 127 127 127 127 127 127 127 127 127 127 127 161 195 127 127 144 127 127 127 127 127 127 127 127 127 127 127 127 127 127 127 127 127 127 127 127 127 127 127 127 127 127 127 127 127 
127 127 127 127 127 127 127 127 127 127 127 127 127 127 127 127 127 127 127 127 127 127 127 127 127 127 127 127 127 127 127 224 127 127 129 127 127 127 127 127 127 127 127 127 127 127 127 127 127 127 127 127 127 127 127 127 127 127 127 127 127 127 127 127 
127 127 127 127 127 127 127 127 127 127 127 127 127 127 127 127 127 127 127 127 127 127 127 127 127 127 127 127 127 127 127 211 153 169 127 127 127 155 127 127 127 127 127 127 127 127 127 127 127 127 127 127 127 127 127 127 127 127 127 127 127 127 127 127 
