P2
64 128
255
180 177 173 167 160 150 140 134 127 127 127 127 127 127 127 127 127 127 127 127 127 127 127 127 127 127 127 127 127 127 127 127 127 127 127 127 127 127 127 127 127 127 127 127 127 127 127 127 127 127 127 127 127 127 127 127 127 127 127 127 127 127 127 127 
176 173 169 165 160 152 144 138 129 127 127 127 127 127 127 127 127 127 127 127 127 127 127 127 127 127 127 127 127 127 127 127 127 127 127 127 127 127 127 127 127 127 127 127 127 127 127 127 127 127 127 127 127 127 127 127 127 127 127 127 127 127 127 127 
168 166 164 162 159 155 149 145 142 130 127 127 127 127 127 127 127 127 127 127 127 127 127 127 127 127 127 127 127 127 127 127 127 127 127 127 127 127 127 127 127 127 127 127 127 127 127 127 127 127 127 127 127 127 127 127 127 127 127 127 127 127 127 127 
160 158 157 156 156 155 152 150 149 142 131 127 127 127 127 127 127 127 127 127 127 127 127 127 127 127 127 127 127 127 127 127 127 127 127 127 127 127 127 127 127 127 127 127 127 127 127 127 127 127 127 127 127 127 127 127 127 127 127 127 127 127 127 127 
150 149 148 149 152 154 154 153 153 150 143 132 127 127 127 127 127 127 127 127 127 127 127 127 127 127 127 127 127 127 127 127 127 127 127 127 127 127 127 127 127 127 127 127 127 127 127 127 127 127 127 127 127 127 127 127 127 127 127 127 127 127 127 127 
137 136 137 141 147 153 156 157 156 157 152 142 128 127 127 127 127 127 127 127 127 127 127 127 127 127 127 127 127 127 127 127 127 127 127 127 127 127 127 127 127 127 127 127 127 127 127 127 127 127 127 127 127 127 127 127 127 127 127 127 127 127 127 127 
127 127 127 133 143 152 159 163 163 165 161 150 137 127 127 127 127 127 127 127 127 127 127 127 127 127 127 127 127 127 127 127 127 127 127 127 127 127 127 127 135 127 127 127 127 127 127 127 127 127 127 127 127 127 127 127 127 127 127 127 127 127 127 127 
127 127 127 128 140 153 162 167 170 171 167 155 142 127 127 127 127 127 127 127 127 127 127 127 127 127 127 127 127 127 127 127 127 127 127 127 127 127 127 127 135 127 127 127 127 127 127 127 127 127 127 127 127 127 127 127 127 127 127 127 127 127 127 127 
127 127 127 129 145 161 170 173 175 176 172 164 152 136 127 127 127 127 127 127 127 127 127 127 127 127 127 127 127 127 127 127 127 127 127 127 127 127 127 127 136 127 127 127 127 127 127 127 127 127 127 127 127 127 127 127 127 127 127 127 127 127 127 127 
129 128 129 139 154 167 175 178 181 182 179 170 158 143 127 127 127 127 127 127 127 127 127 127 127 127 127 127 127 127 127 127 127 127 127 127 127 127 127 127 128 127 127 127 127 127 127 127 127 127 127 127 127 127 127 127 127 127 127 127 127 127 127 127 
147 145 147 154 166 177 184 186 187 188 185 176 165 149 128 127 127 127 127 127 127 127 127 127 127 127 127 127 127 127 127 127 127 127 127 127 127 127 127 127 127 132 127 127 127 127 127 127 127 127 127 127 127 127 127 127 127 127 127 127 127 127 127 127 
165 163 164 169 177 186 191 193 191 192 188 179 167 152 131 127 127 127 127 127 127 127 127 127 127 127 127 127 127 127 127 127 127 127 127 127 127 127 127 127 127 133 127 127 127 127 127 127 127 127 127 127 127 127 127 127 127 127 127 127 127 127 127 127 
178 178 178 181 186 191 195 197 196 196 191 181 169 154 133 127 127 127 127 127 127 127 127 127 127 127 127 127 127 127 127 127 127 127 127 127 127 127 127 127 127 127 127 127 127 127 127 127 127 127 127 127 127 127 127 127 127 127 127 127 127 127 127 127 
187 187 188 189 191 194 197 199 199 199 193 182 169 154 133 127 127 127 127 127 127 127 127 127 127 127 127 127 127 127 127 130 127 127 127 127 127 127 127 127 127 127 127 127 127 127 127 127 127 127 127 127 127 127 127 127 127 127 127 127 127 127 127 127 
193 193 194 194 194 196 198 200 199 198 191 179 165 149 128 127 127 127 127 127 127 127 127 127 129 130 144 137 149 140 151 151 148 148 128 127 127 127 127 127 127 127 127 127 127 127 127 127 127 127 127 127 127 127 127 127 127 127 127 127 127 127 127 127 
196 196 197 197 196 197 199 201 196 194 187 174 160 144 127 127 127 127 127 127 127 127 127 139 150 153 169 163 172 159 165 161 155 170 167 148 127 127 127 127 127 127 127 127 127 127 127 127 127 127 127 127 127 127 127 127 127 127 127 127 127 127 127 127 
193 196 199 199 196 194 194 196 195 189 182 173 154 129 127 127 127 127 127 127 127 127 136 161 167 173 178 177 175 173 166 159 170 165 167 169 153 129 127 137 127 127 127 127 127 127 127 127 127 127 127 134 127 127 127 127 127 127 127 127 127 127 127 127 
195 196 196 194 192 189 187 186 186 181 175 166 152 136 128 128 127 127 127 127 127 129 148 162 174 181 185 184 182 181 175 169 174 172 175 177 165 145 137 141 127 136 134 144 138 132 141 127 127 127 127 127 127 127 127 127 127 127 127 127 127 127 127 127 
193 190 187 186 186 184 179 175 176 166 156 152 146 135 127 127 127 127 127 127 127 143 161 170 175 182 187 186 184 183 180 176 176 180 184 183 177 164 151 143 128 141 146 151 148 150 157 134 127 127 127 127 127 127 127 127 127 127 127 127 127 127 127 127 
187 180 175 175 178 177 171 165 154 140 130 132 135 127 127 127 127 127 127 127 127 133 161 174 172 180 186 186 184 184 182 179 174 182 186 185 183 177 160 142 127 136 144 144 142 154 160 141 128 139 137 127 127 127 127 127 127 127 127 127 127 127 127 127 
182 173 165 163 166 164 157 149 128 127 127 127 127 127 127 127 127 127 127 127 127 127 144 162 166 177 185 185 183 183 183 181 174 182 185 184 186 186 169 148 127 133 150 151 149 161 158 143 145 155 153 127 127 127 127 127 127 127 127 127 127 127 127 127 
178 168 158 152 150 145 136 128 127 127 127 127 127 127 127 127 127 127 127 127 127 127 127 139 152 164 175 177 175 175 175 173 174 179 182 184 190 193 182 166 131 135 162 168 166 170 156 144 153 155 154 135 131 127 127 127 127 127 127 127 127 127 127 127 
169 160 149 141 135 128 127 127 127 127 127 127 127 127 127 127 127 127 127 127 127 127 127 127 137 151 165 168 166 166 165 164 173 173 176 183 193 197 194 188 153 145 173 180 176 176 159 157 163 152 149 153 138 147 141 127 127 127 127 127 127 127 127 127 
159 152 142 133 127 127 127 127 127 127 127 127 127 127 127 127 127 127 127 127 127 127 127 128 133 149 164 168 166 165 164 162 169 167 170 181 192 199 201 202 180 159 181 184 179 180 167 177 178 157 150 169 144 163 160 141 143 133 127 127 127 127 127 127 
141 127 127 127 127 127 127 127 127 127 127 127 127 127 127 127 127 127 127 127 127 127 133 127 136 153 156 176 166 177 158 153 163 165 166 171 186 202 206 201 200 195 191 191 195 196 193 189 187 180 169 166 172 178 173 162 153 145 127 127 127 127 127 127 
127 127 127 127 127 127 127 127 127 127 127 127 127 127 127 127 127 127 127 127 127 127 133 127 147 163 166 182 173 184 171 169 165 167 167 169 182 200 211 212 211 207 203 203 206 206 203 199 193 187 177 171 172 176 178 177 163 155 147 141 128 127 127 127 
127 127 127 127 127 127 127 127 127 127 127 127 127 127 127 127 127 127 127 127 127 132 140 131 156 170 176 187 182 192 186 186 177 177 175 172 179 195 211 220 222 219 216 216 217 216 212 208 201 197 188 176 166 166 175 186 176 169 173 182 173 141 127 127 
127 127 127 127 127 127 127 127 127 127 127 127 127 127 127 127 127 127 127 127 138 146 146 140 155 169 179 188 188 196 196 197 194 194 190 183 181 190 206 218 225 223 222 221 221 219 214 210 206 202 195 179 159 149 162 181 184 181 185 195 195 177 156 145 
127 127 127 127 127 127 127 127 127 127 127 127 127 127 127 127 127 127 127 127 148 155 144 135 148 160 177 183 193 198 203 201 204 205 202 195 188 190 203 216 223 223 223 224 222 219 214 210 205 199 192 179 156 139 150 172 182 186 187 189 194 195 182 165 
127 127 127 127 127 127 127 127 127 127 127 127 127 127 127 127 127 127 127 127 153 160 141 127 140 149 168 174 194 199 208 203 206 207 207 202 195 193 203 216 222 224 226 227 225 220 216 212 203 190 181 174 156 138 145 166 173 181 182 179 186 198 195 182 
127 127 127 127 127 127 127 127 127 127 127 127 127 127 127 127 127 127 127 128 160 170 148 132 133 136 155 159 189 195 209 202 207 206 206 204 197 194 203 216 221 224 228 229 227 222 218 215 205 182 167 164 152 135 139 157 165 164 157 147 143 151 164 173 
127 127 127 127 127 127 127 127 127 127 127 127 127 127 127 127 127 127 127 134 168 181 161 146 128 127 144 146 182 190 208 201 209 206 204 202 196 192 201 214 219 223 227 229 227 223 218 215 209 179 157 155 147 130 131 146 162 145 127 127 127 127 127 133 
127 127 127 127 127 127 127 127 127 127 127 127 127 127 127 127 127 127 127 139 167 190 189 166 156 140 127 135 168 186 193 204 208 199 201 191 173 188 211 210 219 226 231 230 228 226 222 216 204 188 155 150 148 141 146 136 128 127 127 127 127 127 127 127 
127 127 127 127 127 127 127 127 127 127 127 127 127 127 127 127 127 127 127 134 158 174 186 190 180 164 131 127 153 182 186 181 184 178 181 173 159 178 208 214 218 226 232 232 230 229 226 221 211 196 164 157 159 154 148 127 127 127 127 127 127 127 127 127 
127 127 127 127 127 127 127 127 127 127 127 127 127 127 127 127 127 127 127 127 135 151 168 181 182 180 145 127 127 148 155 148 162 159 160 151 141 161 195 211 216 224 231 232 231 231 228 224 217 204 174 166 169 167 142 127 127 127 127 127 127 127 127 127 
127 127 127 127 127 127 127 127 127 127 127 127 127 127 127 127 127 127 127 127 127 131 138 135 151 172 159 127 127 127 127 127 140 142 142 135 130 150 185 210 214 222 229 230 230 230 228 223 223 214 189 181 182 179 134 127 127 127 127 127 127 127 127 127 
127 127 127 127 127 127 127 127 127 127 127 127 127 127 127 127 127 127 127 127 127 127 127 127 128 154 162 140 127 127 127 127 127 129 131 129 131 147 177 207 214 223 230 231 231 231 229 224 228 223 206 198 193 188 131 127 127 127 161 127 127 127 127 127 
127 127 127 127 127 127 127 127 127 127 127 127 127 127 127 127 127 127 127 135 140 127 127 137 130 141 150 152 136 127 127 127 127 136 138 136 140 143 158 184 212 221 229 231 232 233 231 228 225 221 212 206 195 190 136 127 127 130 129 127 127 127 127 127 
127 127 127 127 127 127 127 127 127 127 127 127 127 127 127 127 127 128 133 147 159 132 127 152 130 129 130 137 135 127 127 127 133 149 151 153 158 148 147 168 204 213 222 226 229 233 232 229 223 219 215 212 197 196 155 127 127 127 127 127 127 127 127 127 
127 127 127 127 127 127 127 127 127 127 127 127 127 127 127 127 127 137 141 146 161 144 127 143 127 127 127 127 127 127 127 131 128 148 155 164 175 164 156 175 194 204 215 220 225 230 231 228 230 224 224 222 205 209 179 127 127 127 127 127 127 127 127 127 
127 127 127 127 127 127 127 127 127 127 127 127 127 127 127 127 127 159 169 145 135 142 127 127 127 127 127 127 127 127 127 127 127 154 163 178 183 179 183 155 181 207 209 219 225 218 226 229 217 226 225 217 219 215 180 137 127 127 127 127 127 127 127 127 
127 127 127 127 127 127 127 127 127 127 127 127 127 127 127 127 147 145 143 137 127 127 127 127 127 127 127 127 127 127 127 127 127 139 156 173 176 174 191 183 161 183 184 200 216 217 229 232 220 225 222 215 218 223 212 192 135 127 127 127 127 127 127 127 
127 127 127 127 127 127 127 127 127 127 127 127 127 127 139 158 160 140 127 127 127 127 127 127 127 127 127 127 127 127 127 127 127 127 137 177 182 174 188 193 163 176 172 191 214 218 227 227 227 227 222 214 211 214 216 215 168 133 127 154 181 182 185 198 
127 127 127 127 127 127 127 127 127 127 127 127 128 130 152 162 148 138 127 127 127 127 127 127 127 127 127 127 127 127 127 127 127 127 127 141 178 185 188 189 183 186 170 187 213 217 224 222 229 227 225 222 215 207 207 210 230 218 203 196 197 200 199 195 
127 127 127 127 127 127 127 127 127 127 127 127 134 136 149 139 127 127 127 127 127 127 127 127 127 127 127 127 127 127 127 127 127 127 127 127 127 162 182 194 201 192 164 176 201 210 223 227 228 225 227 232 231 223 220 222 217 222 222 218 219 227 234 235 
127 127 127 127 127 127 127 127 127 127 127 130 127 134 151 133 127 127 127 127 127 127 127 127 127 146 135 127 127 127 127 127 127 127 127 127 127 127 132 177 196 186 157 168 194 203 221 231 233 230 229 233 234 233 232 233 234 222 220 233 239 235 236 245 
127 127 127 127 127 127 127 127 127 127 127 127 127 137 151 127 127 127 127 127 127 127 127 133 132 127 127 127 127 127 127 127 127 127 127 127 127 127 127 127 135 141 137 169 202 208 222 229 234 236 235 230 228 228 229 228 221 209 204 214 224 227 230 237 
127 127 127 127 127 127 127 127 127 127 127 127 127 145 137 127 127 127 127 127 127 127 127 130 139 127 127 127 127 127 127 127 127 127 127 127 127 127 127 127 127 127 127 168 214 220 228 231 226 236 240 233 227 228 227 224 217 224 218 203 205 224 234 229 
127 127 127 127 127 127 127 127 127 127 127 127 127 135 127 127 127 127 127 127 127 127 127 132 132 127 127 127 127 127 127 127 127 127 127 127 127 127 127 127 127 127 127 176 218 223 226 231 234 240 233 226 229 226 221 225 214 223 213 206 198 199 221 229 
127 127 127 127 127 127 127 127 130 127 127 127 134 127 127 127 127 127 127 131 127 136 127 127 127 127 127 127 127 127 127 127 127 127 127 127 127 127 127 127 127 127 127 166 213 225 229 231 221 227 226 224 226 222 217 219 215 214 212 200 188 186 202 227 
127 127 127 127 127 127 127 127 128 129 135 137 127 127 127 136 127 127 127 127 139 139 127 127 128 129 127 127 127 127 127 133 127 127 155 151 129 127 127 127 127 127 127 175 218 230 228 222 217 220 223 224 223 219 216 215 213 199 207 191 178 174 177 227 
147 140 127 127 127 127 127 127 127 140 145 131 127 131 157 176 136 127 127 127 127 128 139 152 135 135 137 127 127 127 127 156 173 188 183 154 137 142 148 143 127 128 162 209 231 231 223 213 215 209 210 212 208 207 209 208 209 184 198 183 175 165 155 223 
127 137 133 127 127 133 127 127 127 127 127 127 127 157 174 174 180 181 156 127 127 127 127 127 134 144 148 135 163 181 187 171 168 137 131 162 183 177 174 184 177 187 216 238 235 227 223 215 208 190 189 194 189 193 202 199 203 176 185 174 170 151 134 209 
136 135 127 127 127 127 127 127 127 127 127 127 160 176 177 176 164 190 187 179 177 185 198 186 184 180 175 158 147 130 127 127 127 127 131 169 188 185 184 193 216 224 241 243 229 225 228 223 205 177 177 188 185 192 202 193 187 170 168 158 154 127 127 190 
127 132 143 144 127 127 127 127 127 127 151 193 202 181 154 138 159 161 148 169 179 155 145 132 127 127 127 127 127 127 127 127 145 169 178 164 161 184 210 219 236 237 242 238 228 231 230 216 191 158 161 179 176 180 182 162 157 159 145 136 128 127 127 180 
136 127 127 127 127 127 127 127 127 141 169 169 170 180 172 150 139 158 137 133 134 127 127 127 127 127 127 127 127 127 129 140 139 144 156 175 199 219 229 232 241 237 237 235 235 240 229 202 165 130 135 158 153 151 144 127 130 147 127 127 127 127 127 179 
127 127 127 127 127 127 127 127 136 162 177 165 148 144 147 146 135 127 127 127 127 127 127 127 127 127 127 127 127 127 127 152 152 153 162 181 203 223 236 244 235 236 238 239 239 238 236 235 225 204 152 127 127 127 127 127 127 127 127 127 127 127 127 178 
127 127 127 127 127 127 127 149 144 149 146 136 132 132 127 127 127 127 127 127 127 127 127 127 127 141 129 127 127 127 127 127 165 175 194 218 236 242 238 234 236 236 237 237 238 239 240 240 225 233 215 173 132 127 127 127 127 127 127 127 127 127 127 180 
127 127 127 127 127 127 127 127 130 127 127 127 127 127 127 127 127 127 127 127 127 127 127 127 127 127 127 127 127 132 148 153 148 167 195 220 236 239 233 227 232 231 230 229 230 233 236 237 230 236 240 221 182 151 131 127 127 127 127 127 127 127 131 169 
127 127 127 127 127 127 127 127 127 127 127 127 127 127 127 127 127 127 127 127 127 127 127 127 127 127 127 127 127 127 127 134 165 185 209 221 224 226 228 229 234 233 232 232 232 233 235 236 238 222 223 224 208 192 161 127 127 127 127 127 127 127 132 146 
127 127 127 127 127 127 127 127 127 127 127 127 127 127 127 127 127 127 127 127 127 127 127 127 127 127 127 127 127 127 127 133 151 182 214 227 227 230 239 245 238 239 239 239 238 236 234 233 236 218 215 212 198 195 184 154 127 127 127 127 127 127 127 132 
127 127 127 127 127 127 127 127 127 127 127 127 127 127 127 127 127 127 127 127 127 127 127 127 127 127 127 127 127 127 127 127 138 176 217 233 233 233 234 233 223 224 225 224 223 219 216 214 214 209 208 206 199 192 175 152 127 127 127 127 127 127 127 128 
127 127 127 127 127 127 127 127 127 127 127 127 127 127 127 127 127 127 127 127 127 127 127 129 140 127 127 127 129 127 127 139 192 217 238 240 232 224 214 203 207 207 206 205 204 202 200 200 198 201 194 190 192 176 146 127 127 127 127 127 127 127 127 127 
127 127 127 127 132 127 127 127 127 127 127 127 127 127 127 127 127 127 127 127 127 127 127 127 127 127 127 127 127 127 127 161 207 217 220 215 215 220 219 210 210 209 206 204 204 204 205 206 200 209 191 167 159 143 127 133 127 127 127 127 127 127 127 127 
127 127 127 127 127 127 127 127 127 127 127 127 127 127 127 127 127 127 127 127 127 127 127 127 127 127 127 127 127 127 127 160 200 206 210 211 214 218 217 214 218 211 216 222 219 217 212 197 196 180 164 155 146 132 127 127 127 127 127 127 127 127 127 127 
127 127 127 127 127 127 127 127 127 127 127 127 127 127 127 129 127 127 127 127 127 127 127 127 127 127 127 127 127 127 153 176 197 207 216 218 219 220 218 214 213 204 202 200 189 184 179 166 160 159 154 147 142 133 127 127 127 127 127 127 127 127 127 127 
127 127 127 127 133 129 127 127 127 127 127 127 127 127 127 127 127 127 127 127 127 127 127 127 127 127 127 127 127 132 150 161 187 200 211 212 206 200 194 189 179 173 176 176 167 165 164 156 149 150 143 132 128 127 127 127 127 127 127 127 127 127 127 127 
127 127 127 135 147 140 130 127 132 127 127 127 127 127 127 127 127 127 127 127 127 127 127 127 127 127 127 127 135 132 127 133 159 174 188 188 182 176 171 167 161 159 166 168 160 158 160 154 148 142 131 127 127 127 127 127 127 127 127 127 127 127 127 127 
127 127 127 127 127 127 127 129 143 133 127 127 127 127 127 127 127 127 127 127 127 127 127 127 127 127 127 127 127 127 127 127 134 151 167 173 173 175 177 177 179 171 169 162 148 144 146 140 133 127 127 127 127 127 127 127 127 127 127 127 127 127 127 127 
127 127 127 127 127 127 127 127 127 127 127 127 127 127 127 127 127 127 127 127 127 127 127 127 127 127 127 127 127 127 127 127 138 153 168 175 178 183 185 185 173 160 153 144 131 131 137 133 127 127 127 127 127 127 127 127 127 127 127 127 127 127 127 127 
127 127 127 127 127 127 127 127 127 127 127 127 127 127 127 127 127 127 127 127 127 127 127 127 127 127 127 127 127 127 127 127 142 154 166 172 175 177 175 171 144 134 132 130 127 127 127 127 127 127 127 127 127 127 127 127 127 127 127 127 127 127 127 127 
127 127 127 127 127 127 127 127 127 127 127 127 127 127 127 127 127 127 127 127 127 127 127 127 127 127 127 127 127 127 127 155 127 137 150 159 165 167 163 156 135 128 131 131 127 127 127 127 127 127 127 127 127 127 127 127 127 127 127 127 127 127 127 127 
127 127 127 127 127 127 127 127 127 127 127 127 127 127 127 127 127 127 127 127 127 127 127 127 127 127 127 127 127 127 150 127 127 158 141 141 149 147 152 136 127 139 127 127 127 127 127 127 127 127 127 127 127 127 127 127 127 127 127 127 127 127 127 127 
127 127 128 127 127 127 127 127 127 127 127 127 127 127 127 127 127 127 127 127 127 127 127 127 127 127 127 127 127 127 139 127 140 127 127 155 137 147 127 127 127 127 127 127 127 127 127 127 127 127 127 127 127 127 127 127 127 127 127 127 127 127 127 127 
127 127 127 127 127 127 127 127 127 127 127 127 127 127 127 127 127 127 127 127 127 127 127 127 127 127 127 127 127 127 127 127 127 127 127 127 127 127 127 127 127 127 127 127 127 127 127 127 127 127 127 127 127 127 127 127 127 127 127 127 127 127 127 127 
127 127 127 127 127 127 127 127 127 127 127 127 127 127 127 127 127 127 127 127 127 127 127 127 127 127 127 127 127 127 127 127 127 127 127 127 127 127 127 127 127 127 127 127 127 127 127 127 127 127 127 127 127 127 127 127 127 127 127 127 127 127 127 127 
127 127 127 127 127 127 127 127 127 127 127 127 127 127 127 127 127 127 127 127 127 127 127 127 127 127 127 127 127 127 127 127 127 127 127 127 127 127 127 127 127 127 127 127 127 127 127 127 127 127 127 127 127 127 127 127 127 127 127 127 127 127 127 127 
127 127 127 127 127 127 127 127 127 127 127 127 127 127 127 127 127 127 127 127 127 127 127 127 127 127 127 127 127 127 127 127 127 127 130 132 127 127 127 127 127 127 127 127 127 127 127 127 127 127 127 127 127 127 127 127 127 127 127 127 127 127 127 127 
127 127 127 127 127 127 127 127 127 127 127 127 127 127 127 127 127 127 127 127 127 127 127 127 127 127 127 127 127 127 127 127 127 127 149 127 127 127 127 127 127 127 127 127 127 127 127 127 127 127 127 127 127 127 127 127 127 127 127 127 127 127 127 127 
127 127 127 127 127 127 127 127 127 127 127 127 127 127 127 127 127 127 127 127 127 127 127 127 127 127 127 147 127 127 143 127 127 127 194 127 127 127 127 127 127 127 127 127 127 127 127 127 127 127 127 127 127 127 127 127 127 127 127 127 127 127 127 127 
127 127 127 127 127 127 127 127 127 127 127 127 127 127 127 127 127 127 127 127 127 127 127 127 127 127 127 127 127 127 129 128 127 127 163 127 127 127 127 127 127 127 127 127 127 127 127 127 127 127 127 127 127 127 127 127 127 127 127 127 127 127 127 127 
127 127 127 127 127 127 127 127 127 127 127 127 127 127 127 127 127 127 127 127 127 127 127 127 127 127 127 127 127 127 129 132 127 127 152 127 127 127 127 127 127 127 127 127 127 127 127 127 127 127 127 127 127 127 127 127 127 127 127 127 127 127 127 127 
127 127 127 127 127 127 127 127 127 127 127 127 127 127 127 127 127 127 127 127 127 127 127 127 127 127 144 127 127 151 134 134 127 127 157 127 127 127 127 127 127 127 127 127 127 127 127 127 127 127 127 127 127 127 127 127 127 127 127 127 127 127 127 127 
127 127 127 127 127 127 127 127 127 127 127 127 127 127 127 127 127 127 127 127 127 127 127 127 127 144 146 127 127 168 148 131 127 136 163 127 127 127 127 132 127 127 127 127 127 127 127 127 127 127 127 127 127 132 127 127 127 127 127 127 127 127 127 127 
127 127 127 127 127 127 127 127 127 127 127 127 127 127 127 127 127 127 127 127 127 127 127 127 133 169 138 134 133 167 165 127 128 145 155 127 127 127 135 151 137 138 141 145 145 140 133 128 129 127 127 127 134 161 130 127 127 127 127 127 127 127 127 133 
127 127 127 127 127 127 127 127 127 127 127 127 127 127 127 127 127 127 127 127 127 127 127 127 142 177 135 140 154 163 172 131 138 156 160 127 127 127 134 141 130 127 131 138 135 127 127 135 140 127 127 127 132 158 136 127 131 127 127 127 127 127 127 127 
127 127 127 127 127 127 127 127 127 127 127 127 127 127 127 127 127 127 127 127 127 127 127 133 154 170 144 142 172 167 169 143 143 169 179 143 146 128 139 130 128 127 127 127 127 127 135 148 135 127 135 129 127 149 136 127 127 127 127 127 127 127 127 127 
127 127 127 127 127 127 127 127 127 127 127 127 127 127 127 127 127 127 127 127 127 127 129 135 165 160 155 142 181 173 162 154 151 178 188 144 152 132 153 140 130 132 127 127 127 127 139 150 143 127 142 140 128 155 145 127 127 127 127 127 127 127 127 127 
127 127 127 127 127 127 127 127 127 127 127 127 127 127 127 127 127 127 127 127 127 127 127 144 176 153 155 146 189 188 160 163 155 186 169 167 150 152 149 147 149 148 144 136 128 127 129 133 130 127 135 152 160 146 127 127 127 127 127 127 127 127 127 127 
127 127 127 127 127 127 127 127 127 127 127 127 127 127 127 127 127 127 127 127 129 130 134 147 176 155 156 147 188 181 154 155 150 180 168 176 164 164 158 156 150 152 154 155 153 148 141 136 127 127 127 149 163 158 144 134 127 127 127 127 127 127 127 127 
127 127 127 127 127 127 127 127 127 127 127 127 127 127 127 127 127 127 127 127 132 136 138 150 167 151 152 149 188 175 151 152 162 183 167 181 172 167 157 158 166 160 155 155 159 161 159 157 157 152 151 154 155 148 139 135 134 127 127 127 127 127 127 127 
127 127 127 127 127 127 127 127 127 127 127 127 127 127 127 127 127 127 127 127 128 132 137 152 151 142 145 151 190 172 155 156 172 182 161 177 170 165 158 162 169 163 156 154 156 161 165 166 173 172 169 166 160 151 143 139 127 127 127 127 127 127 127 127 
127 127 127 127 127 127 127 127 127 127 127 127 127 127 127 127 127 127 127 127 127 127 135 155 138 137 140 152 190 166 156 158 161 173 154 174 172 170 164 168 157 162 167 169 167 164 162 161 160 167 174 175 168 155 139 128 127 127 127 127 127 127 127 127 
127 127 127 127 127 127 127 127 127 127 127 127 127 127 127 127 127 127 127 127 127 127 133 155 132 136 136 152 186 155 151 153 155 173 157 174 170 169 160 159 164 168 172 171 167 165 168 172 177 178 173 164 156 149 140 132 132 127 127 127 127 127 127 127 
127 127 127 127 127 127 127 127 127 127 127 127 127 127 127 127 127 127 127 127 129 127 131 149 127 133 131 150 181 144 146 149 157 178 156 162 154 159 155 153 173 170 165 162 162 167 174 180 179 175 165 154 153 159 161 158 143 130 127 127 127 127 127 127 
127 127 127 127 127 127 127 127 127 127 127 127 127 127 127 127 127 127 127 127 130 127 128 142 127 129 127 147 177 139 144 147 153 173 145 141 135 153 161 164 160 160 161 166 171 173 169 165 174 177 174 169 166 163 151 138 136 127 127 127 127 127 127 127 
127 127 127 127 127 127 127 127 127 127 127 127 127 127 127 128 128 128 129 130 128 128 136 146 131 127 127 151 155 130 131 135 131 158 132 139 148 142 169 159 155 154 154 156 160 163 166 167 175 171 167 164 160 153 143 137 127 127 127 127 127 127 127 127 
133 131 128 127 127 127 128 129 127 128 129 130 132 132 133 133 131 130 131 132 130 129 136 146 128 127 127 147 149 127 127 127 127 150 127 134 143 137 158 147 151 153 153 151 148 148 152 156 162 161 160 159 157 150 141 134 128 127 127 127 127 127 127 127 
148 146 143 141 140 140 141 142 142 141 141 141 140 140 139 139 137 135 135 135 133 131 137 145 127 127 127 145 144 127 127 127 127 142 127 127 136 132 145 133 146 149 149 144 138 137 143 149 150 152 155 157 157 151 142 135 129 127 127 127 127 127 127 127 
162 160 156 152 149 147 147 147 153 152 151 148 146 145 144 143 142 140 139 139 136 134 138 144 127 127 127 147 145 127 127 127 127 137 127 127 128 127 134 127 138 139 138 135 133 135 140 145 143 147 153 157 156 150 142 136 127 127 127 127 127 127 127 127 
171 169 165 161 158 155 154 153 160 158 155 152 149 147 145 145 147 143 141 142 140 137 139 143 127 129 128 149 146 127 127 127 127 133 127 127 127 127 127 127 129 127 127 127 127 129 130 130 133 137 143 147 145 139 132 127 127 127 127 127 127 127 127 127 
175 174 171 169 166 165 164 163 163 161 157 153 150 148 147 147 149 145 143 144 142 139 139 143 129 132 132 150 146 127 127 127 127 128 127 127 127 127 127 127 127 127 127 127 127 127 127 127 127 127 127 128 127 127 127 127 127 127 127 127 127 127 127 127 
180 179 177 174 172 169 168 167 165 162 159 155 152 151 151 151 150 145 143 144 144 141 140 143 135 139 137 153 147 127 127 127 127 127 127 127 127 127 127 127 127 127 127 127 127 127 127 127 127 127 127 127 127 127 127 127 127 127 127 127 127 127 127 127 
185 184 180 176 172 168 165 163 166 164 160 157 155 154 154 155 150 145 143 145 145 142 141 143 142 146 143 156 149 127 127 127 127 127 131 127 127 127 127 127 127 127 127 127 127 127 127 127 127 127 127 127 127 127 127 127 127 127 127 127 127 127 127 127 
191 187 183 180 179 177 176 174 164 164 164 163 160 157 154 152 148 145 145 148 145 140 143 151 147 143 143 147 147 138 129 127 127 131 132 127 127 127 127 127 127 127 127 127 127 127 127 127 127 127 127 127 127 127 127 127 127 127 127 127 127 127 127 127 
194 190 185 181 179 177 174 172 167 166 166 164 161 158 155 153 151 148 148 150 147 143 146 153 148 144 143 147 146 139 130 127 127 131 133 127 127 127 127 127 127 127 127 127 127 127 127 127 127 127 127 127 127 127 127 127 127 127 127 127 127 127 127 127 
197 194 188 184 181 178 174 171 169 169 167 165 162 158 155 154 155 152 152 152 150 148 150 155 150 144 143 146 146 139 132 129 127 133 135 130 127 127 127 127 127 127 127 127 127 127 127 127 127 127 127 127 127 127 127 127 127 127 127 127 127 127 127 127 
199 195 191 187 184 181 177 174 170 169 167 165 161 158 156 154 157 156 154 153 152 151 152 154 151 145 143 146 146 141 135 132 131 134 136 134 129 127 127 127 127 127 127 127 127 127 127 127 127 127 127 127 127 127 127 127 127 127 127 127 127 127 127 127 
199 196 192 190 187 184 180 177 171 170 167 164 161 159 157 156 158 158 155 153 152 153 154 153 151 145 144 147 148 143 137 135 133 135 137 137 134 129 127 127 127 127 127 127 127 127 127 127 127 127 127 127 127 127 127 127 127 127 127 127 127 127 127 127 
200 198 195 192 190 187 183 179 172 170 168 165 163 161 160 159 160 159 156 152 152 156 155 152 150 145 145 149 150 145 139 136 135 134 137 140 138 131 127 127 127 127 127 127 127 127 127 127 127 127 127 127 127 127 127 127 127 127 127 127 127 127 127 127 
203 201 198 195 192 188 183 179 173 172 170 167 166 165 165 165 161 162 158 153 154 158 157 151 149 145 146 151 153 147 139 136 136 134 136 142 141 133 128 128 127 127 127 128 128 127 127 127 127 127 127 127 127 127 127 127 127 127 127 127 127 127 127 127 
207 204 200 197 193 188 181 177 175 174 172 169 168 168 168 169 163 164 159 154 155 160 159 152 148 145 146 153 154 148 140 136 137 133 136 142 142 134 128 128 128 128 129 130 130 130 130 129 130 130 129 127 127 127 127 127 127 127 127 127 127 127 127 127 
206 203 198 195 192 189 185 182 180 178 175 173 172 171 168 165 163 164 165 164 162 159 155 153 146 149 155 158 156 151 143 139 140 140 141 141 140 139 138 138 132 132 131 131 132 133 134 135 132 132 131 130 127 127 127 127 127 127 127 127 127 127 127 127 
208 205 201 198 195 192 187 184 182 180 177 175 174 173 170 167 167 167 167 166 164 161 157 155 150 153 157 159 158 153 147 144 141 142 142 142 142 143 143 143 137 137 136 135 134 134 135 135 135 135 134 132 129 127 127 127 127 127 127 127 127 127 127 127 
211 208 204 201 198 195 191 188 185 182 180 178 177 175 172 170 171 171 171 169 166 163 160 158 157 158 160 161 160 157 153 151 145 145 144 144 144 146 148 149 144 143 141 139 138 137 137 136 138 138 137 135 133 131 128 127 127 128 130 128 127 127 127 129 
213 210 206 203 201 198 194 191 187 185 182 180 179 178 175 172 174 174 173 171 168 165 162 160 162 163 163 163 162 160 159 157 152 150 148 147 146 148 150 151 147 146 144 143 141 140 140 140 140 140 139 138 136 135 133 132 130 132 133 130 127 127 127 127 
214 211 208 205 203 200 197 194 189 187 184 182 182 180 177 175 176 175 174 172 169 166 164 163 166 166 166 165 165 164 163 163 159 157 154 151 149 149 150 151 149 148 146 145 144 144 144 144 142 141 141 139 139 138 138 137 135 134 133 133 133 130 127 127 
216 213 210 207 206 203 200 197 193 191 188 186 185 183 181 178 177 176 175 173 171 169 168 167 170 170 170 169 169 168 168 168 165 163 160 157 155 153 153 153 152 151 150 148 147 147 147 147 144 144 143 142 142 142 143 143 141 138 136 137 139 138 132 127 
219 216 213 211 209 207 203 200 198 195 192 191 190 188 185 183 179 178 177 175 174 173 172 172 174 174 174 174 174 173 172 172 168 167 166 164 162 160 159 158 159 157 155 153 151 149 149 148 147 147 146 145 145 146 148 148 148 146 142 139 137 136 135 134 
221 219 215 213 212 209 206 203 201 199 196 194 193 191 189 186 180 179 178 177 176 176 176 176 176 177 177 178 177 177 176 175 169 169 169 168 167 165 164 163 164 162 160 156 153 151 149 148 150 149 148 148 148 149 151 152 155 153 148 139 131 128 132 137 
222 220 218 215 212 210 207 206 202 201 200 198 196 194 192 192 187 187 185 184 182 180 179 178 180 181 182 183 183 183 181 180 175 173 170 169 168 167 165 162 158 157 156 154 153 153 153 153 157 156 155 155 155 155 155 156 160 158 154 150 145 137 128 127 
222 221 219 216 213 210 208 207 203 202 201 199 197 195 193 192 190 189 188 186 184 183 182 181 183 184 185 186 186 185 184 183 177 175 172 170 170 168 166 163 159 158 157 156 155 154 154 155 160 159 159 158 158 159 159 159 161 160 160 159 154 146 136 129 
222 221 219 217 214 211 209 208 204 203 202 200 198 196 195 194 192 192 191 189 188 186 185 185 186 187 189 189 189 188 187 186 180 178 175 173 172 170 167 165 161 161 159 158 158 157 157 158 164 164 164 164 164 164 164 164 162 164 166 167 165 157 147 140 
223 222 220 218 215 213 211 210 206 205 204 202 200 198 197 196 194 194 193 192 190 189 188 188 189 190 191 192 191 190 188 187 183 181 178 176 174 172 169 167 164 164 163 162 161 161 161 162 167 167 168 168 168 168 168 168 165 166 168 170 169 164 156 150 
224 223 221 219 216 214 213 212 208 207 206 204 202 200 199 198 196 195 195 194 192 191 191 190 190 191 192 192 192 190 189 188 185 182 179 178 177 175 172 170 167 167 166 165 165 165 166 166 168 169 170 171 172 172 171 171 168 167 166 166 166 163 159 155 
224 223 222 220 218 216 214 213 210 209 208 206 204 202 201 200 198 197 197 196 195 194 194 193 191 192 193 193 192 191 189 188 185 182 180 179 178 177 174 172 170 170 169 169 168 169 169 170 170 171 173 175 175 175 174 173 170 168 166 164 163 161 157 155 
225 224 223 221 219 217 215 215 212 211 209 207 205 203 202 201 201 200 200 199 198 198 197 197 193 194 195 195 194 192 190 189 183 181 179 179 179 178 176 174 173 172 172 171 171 172 172 173 172 173 176 178 179 178 177 176 173 171 169 167 165 160 155 150 
225 224 223 221 219 217 216 215 212 212 210 208 206 204 203 202 203 203 202 202 201 200 200 200 195 196 196 196 195 193 191 190 182 181 179 179 179 179 178 176 174 173 173 172 173 173 174 175 173 175 178 180 181 181 179 178 174 173 172 171 168 161 153 147 
